<mxfile host="Electron" modified="2024-03-25T21:22:40.587Z" agent="Mozilla/5.0 (Windows NT 10.0; Win64; x64) AppleWebKit/537.36 (KHTML, like Gecko) draw.io/24.1.0 Chrome/120.0.6099.109 Electron/28.1.0 Safari/537.36" etag="TkD-jQ5jv_boz9FxkC-f" version="24.1.0" type="device">
  <diagram id="MTIWqMcel65jyrCyEGtX" name="Page-1">
    <mxGraphModel dx="1050" dy="1829" grid="1" gridSize="10" guides="1" tooltips="1" connect="1" arrows="1" fold="1" page="1" pageScale="1" pageWidth="1920" pageHeight="1200" math="0" shadow="0">
      <root>
        <mxCell id="0" />
        <mxCell id="1" parent="0" />
        <mxCell id="rJAPC31UgUTa_ClsGkhX-57" value="" style="rounded=0;whiteSpace=wrap;html=1;fontSize=25;fillColor=#f5f5f5;fontColor=#333333;strokeColor=#666666;direction=east;strokeWidth=2;fontStyle=1" parent="1" vertex="1">
          <mxGeometry x="180" y="-440" width="1640" height="1620" as="geometry" />
        </mxCell>
        <mxCell id="AzQMzEea1ovq_iMKdV9r-205" value="" style="rounded=0;whiteSpace=wrap;html=1;fontStyle=1;strokeWidth=2;" parent="1" vertex="1">
          <mxGeometry x="200" y="-370" width="1600" height="370" as="geometry" />
        </mxCell>
        <mxCell id="rJAPC31UgUTa_ClsGkhX-52" value="" style="rounded=0;whiteSpace=wrap;html=1;fontStyle=1;strokeWidth=2;" parent="1" vertex="1">
          <mxGeometry x="200" y="-20" width="1600" height="300" as="geometry" />
        </mxCell>
        <mxCell id="rJAPC31UgUTa_ClsGkhX-51" value="" style="rounded=0;whiteSpace=wrap;html=1;fontStyle=1;strokeWidth=2;" parent="1" vertex="1">
          <mxGeometry x="200" y="280" width="1600" height="270" as="geometry" />
        </mxCell>
        <mxCell id="rJAPC31UgUTa_ClsGkhX-50" value="" style="rounded=0;whiteSpace=wrap;html=1;fontStyle=1;strokeWidth=2;" parent="1" vertex="1">
          <mxGeometry x="200" y="550" width="1600" height="260" as="geometry" />
        </mxCell>
        <mxCell id="rJAPC31UgUTa_ClsGkhX-46" value="" style="rounded=0;whiteSpace=wrap;html=1;fontStyle=1;strokeWidth=2;" parent="1" vertex="1">
          <mxGeometry x="200" y="810" width="1600" height="350" as="geometry" />
        </mxCell>
        <mxCell id="rJAPC31UgUTa_ClsGkhX-4" style="edgeStyle=orthogonalEdgeStyle;rounded=0;orthogonalLoop=1;jettySize=auto;html=1;exitX=0.5;exitY=1;exitDx=0;exitDy=0;strokeColor=#00CC00;fontStyle=1;strokeWidth=2;" parent="1" source="rJAPC31UgUTa_ClsGkhX-2" target="rJAPC31UgUTa_ClsGkhX-3" edge="1">
          <mxGeometry relative="1" as="geometry" />
        </mxCell>
        <mxCell id="rJAPC31UgUTa_ClsGkhX-2" value="PRINTS PHYSICAL ID CARD WITH UID, PHOTO &amp;amp; ATTRIBUTES" style="whiteSpace=wrap;html=1;fontStyle=1;strokeWidth=2;" parent="1" vertex="1">
          <mxGeometry x="666" y="-7" width="140" height="60" as="geometry" />
        </mxCell>
        <mxCell id="rJAPC31UgUTa_ClsGkhX-7" style="edgeStyle=orthogonalEdgeStyle;rounded=0;orthogonalLoop=1;jettySize=auto;html=1;strokeColor=#00CC00;fontStyle=1;strokeWidth=2;" parent="1" source="rJAPC31UgUTa_ClsGkhX-3" target="rJAPC31UgUTa_ClsGkhX-6" edge="1">
          <mxGeometry relative="1" as="geometry" />
        </mxCell>
        <mxCell id="rJAPC31UgUTa_ClsGkhX-3" value="PRINTS LETTER WITH UID &amp;amp; FIRST-TIME PASSWORD" style="whiteSpace=wrap;html=1;fontStyle=1;strokeWidth=2;" parent="1" vertex="1">
          <mxGeometry x="666" y="86.25" width="140" height="63.75" as="geometry" />
        </mxCell>
        <mxCell id="rJAPC31UgUTa_ClsGkhX-28" style="edgeStyle=orthogonalEdgeStyle;rounded=0;orthogonalLoop=1;jettySize=auto;html=1;exitX=0.5;exitY=1;exitDx=0;exitDy=0;strokeColor=#00CC00;fontStyle=1;strokeWidth=2;entryX=0.5;entryY=0;entryDx=0;entryDy=0;" parent="1" source="rJAPC31UgUTa_ClsGkhX-6" target="rJAPC31UgUTa_ClsGkhX-22" edge="1">
          <mxGeometry relative="1" as="geometry">
            <Array as="points">
              <mxPoint x="736" y="885" />
            </Array>
          </mxGeometry>
        </mxCell>
        <mxCell id="rJAPC31UgUTa_ClsGkhX-6" value="SENDS PHYSICAL COPY OF DID &amp;amp; A/C DETAILS VIA POST" style="whiteSpace=wrap;html=1;fontStyle=1;strokeWidth=2;" parent="1" vertex="1">
          <mxGeometry x="676" y="167" width="120" height="60" as="geometry" />
        </mxCell>
        <mxCell id="ARy9L5jDqZxJadZBe0WN-5" style="edgeStyle=orthogonalEdgeStyle;rounded=0;orthogonalLoop=1;jettySize=auto;html=1;exitX=0.75;exitY=1;exitDx=0;exitDy=0;entryX=0;entryY=0.5;entryDx=0;entryDy=0;strokeColor=#00CC00;fontStyle=1;strokeWidth=2;" parent="1" source="rJAPC31UgUTa_ClsGkhX-9" target="cQHOtLbvJ-afgvZn70sQ-9" edge="1">
          <mxGeometry relative="1" as="geometry" />
        </mxCell>
        <mxCell id="rJAPC31UgUTa_ClsGkhX-9" value="RECEIVES TRACKING NUMBER AND STORES" style="whiteSpace=wrap;html=1;fontStyle=1;strokeWidth=2;" parent="1" vertex="1">
          <mxGeometry x="830" y="160" width="140" height="59.5" as="geometry" />
        </mxCell>
        <mxCell id="AzQMzEea1ovq_iMKdV9r-287" style="edgeStyle=orthogonalEdgeStyle;rounded=0;orthogonalLoop=1;jettySize=auto;html=1;exitX=1;exitY=0.5;exitDx=0;exitDy=0;strokeColor=#00CC00;fontStyle=1;strokeWidth=2;" parent="1" source="rJAPC31UgUTa_ClsGkhX-10" target="AzQMzEea1ovq_iMKdV9r-280" edge="1">
          <mxGeometry relative="1" as="geometry" />
        </mxCell>
        <mxCell id="rJAPC31UgUTa_ClsGkhX-10" value="RECEIVES NOTIFICATION OF DELIVEREDSTATUS" style="whiteSpace=wrap;html=1;fontStyle=1;strokeWidth=2;" parent="1" vertex="1">
          <mxGeometry x="1440" y="34.870000000000005" width="120" height="60" as="geometry" />
        </mxCell>
        <mxCell id="AzQMzEea1ovq_iMKdV9r-240" style="edgeStyle=orthogonalEdgeStyle;rounded=0;orthogonalLoop=1;jettySize=auto;html=1;exitX=1;exitY=0.5;exitDx=0;exitDy=0;entryX=0;entryY=0.5;entryDx=0;entryDy=0;strokeColor=#00CC00;fontStyle=1;strokeWidth=2;" parent="1" source="rJAPC31UgUTa_ClsGkhX-12" target="rJAPC31UgUTa_ClsGkhX-2" edge="1">
          <mxGeometry relative="1" as="geometry" />
        </mxCell>
        <mxCell id="rJAPC31UgUTa_ClsGkhX-12" value="RECEIVES NOTIFICATION OF SUCCESSFUL APPLICATION ON EMAIL/PHONE" style="whiteSpace=wrap;html=1;fontStyle=1;strokeWidth=2;" parent="1" vertex="1">
          <mxGeometry x="460" y="-140" width="120" height="70" as="geometry" />
        </mxCell>
        <mxCell id="rJAPC31UgUTa_ClsGkhX-33" style="edgeStyle=orthogonalEdgeStyle;rounded=0;orthogonalLoop=1;jettySize=auto;html=1;exitX=1;exitY=0.5;exitDx=0;exitDy=0;entryX=0.5;entryY=0;entryDx=0;entryDy=0;strokeColor=#00CC00;fontStyle=1;strokeWidth=2;" parent="1" source="rJAPC31UgUTa_ClsGkhX-15" target="rJAPC31UgUTa_ClsGkhX-32" edge="1">
          <mxGeometry relative="1" as="geometry">
            <Array as="points">
              <mxPoint x="1140" y="-110" />
            </Array>
          </mxGeometry>
        </mxCell>
        <mxCell id="rJAPC31UgUTa_ClsGkhX-15" value="RECEIVES DID TRACKING DETAILS&lt;br&gt;ON EMAIL AND PHONE" style="whiteSpace=wrap;html=1;fontStyle=1;strokeWidth=2;" parent="1" vertex="1">
          <mxGeometry x="1000" y="-140" width="120" height="60" as="geometry" />
        </mxCell>
        <mxCell id="AzQMzEea1ovq_iMKdV9r-252" style="edgeStyle=orthogonalEdgeStyle;rounded=0;orthogonalLoop=1;jettySize=auto;html=1;exitX=1;exitY=0.5;exitDx=0;exitDy=0;entryX=0;entryY=0.5;entryDx=0;entryDy=0;strokeColor=#00CC00;fontStyle=1;strokeWidth=2;" parent="1" source="rJAPC31UgUTa_ClsGkhX-17" target="AzQMzEea1ovq_iMKdV9r-251" edge="1">
          <mxGeometry relative="1" as="geometry">
            <Array as="points">
              <mxPoint x="1340" y="-83" />
              <mxPoint x="1340" y="750" />
              <mxPoint x="1390" y="750" />
              <mxPoint x="1390" y="967" />
            </Array>
          </mxGeometry>
        </mxCell>
        <mxCell id="rJAPC31UgUTa_ClsGkhX-17" value="SHOWS ORIGINAL POI FOR VERIFICATION AND SIGNS THE ACKNOWLEDGEMENT&lt;br&gt;OF RECIVED" style="whiteSpace=wrap;html=1;fontStyle=1;strokeWidth=2;" parent="1" vertex="1">
          <mxGeometry x="1170" y="-130" width="130" height="95" as="geometry" />
        </mxCell>
        <mxCell id="cQHOtLbvJ-afgvZn70sQ-21" style="edgeStyle=orthogonalEdgeStyle;rounded=0;orthogonalLoop=1;jettySize=auto;html=1;exitX=0.5;exitY=1;exitDx=0;exitDy=0;strokeColor=#00CC00;fontStyle=1;strokeWidth=2;" parent="1" source="rJAPC31UgUTa_ClsGkhX-18" target="rJAPC31UgUTa_ClsGkhX-10" edge="1">
          <mxGeometry relative="1" as="geometry">
            <Array as="points">
              <mxPoint x="1470" y="-80" />
              <mxPoint x="1500" y="-80" />
            </Array>
          </mxGeometry>
        </mxCell>
        <mxCell id="rJAPC31UgUTa_ClsGkhX-18" value="RECEIVES LETTER WITH DID PHYSICAL CARD AND ACTIVATION INSTRUCTIONS" style="whiteSpace=wrap;html=1;fontStyle=1;strokeWidth=2;" parent="1" vertex="1">
          <mxGeometry x="1400" y="-265" width="140" height="80" as="geometry" />
        </mxCell>
        <mxCell id="AzQMzEea1ovq_iMKdV9r-288" style="edgeStyle=orthogonalEdgeStyle;rounded=0;orthogonalLoop=1;jettySize=auto;html=1;exitX=1;exitY=0.5;exitDx=0;exitDy=0;strokeColor=#00CC00;fontStyle=1;strokeWidth=2;" parent="1" source="rJAPC31UgUTa_ClsGkhX-19" target="AzQMzEea1ovq_iMKdV9r-280" edge="1">
          <mxGeometry relative="1" as="geometry">
            <Array as="points">
              <mxPoint x="1750" y="-225" />
              <mxPoint x="1750" y="120" />
              <mxPoint x="1680" y="120" />
            </Array>
          </mxGeometry>
        </mxCell>
        <mxCell id="rJAPC31UgUTa_ClsGkhX-19" value="RECEIVE NOTIFICATION OF DELIVERY FAILURE AND INSTRUCTIONS TOPHYSICALLY COLLECTS LETTER FROM DID ADMIN OFFICE" style="whiteSpace=wrap;html=1;fontStyle=1;strokeWidth=2;" parent="1" vertex="1">
          <mxGeometry x="1590" y="-290" width="140" height="130" as="geometry" />
        </mxCell>
        <mxCell id="rJAPC31UgUTa_ClsGkhX-27" style="edgeStyle=orthogonalEdgeStyle;rounded=0;orthogonalLoop=1;jettySize=auto;html=1;exitX=0.5;exitY=1;exitDx=0;exitDy=0;entryX=0.5;entryY=0;entryDx=0;entryDy=0;strokeColor=#00CC00;fontStyle=1;strokeWidth=2;" parent="1" source="rJAPC31UgUTa_ClsGkhX-22" target="rJAPC31UgUTa_ClsGkhX-25" edge="1">
          <mxGeometry relative="1" as="geometry" />
        </mxCell>
        <mxCell id="rJAPC31UgUTa_ClsGkhX-22" value="RECEIVES SEALED LETTER FROM ADMINISTRATOR" style="whiteSpace=wrap;html=1;fontStyle=1;strokeWidth=2;" parent="1" vertex="1">
          <mxGeometry x="676" y="937" width="120" height="60" as="geometry" />
        </mxCell>
        <mxCell id="rJAPC31UgUTa_ClsGkhX-29" style="edgeStyle=orthogonalEdgeStyle;rounded=0;orthogonalLoop=1;jettySize=auto;html=1;exitX=1;exitY=0.5;exitDx=0;exitDy=0;entryX=0;entryY=0.5;entryDx=0;entryDy=0;strokeColor=#00CC00;fontStyle=1;strokeWidth=2;" parent="1" source="rJAPC31UgUTa_ClsGkhX-25" target="rJAPC31UgUTa_ClsGkhX-26" edge="1">
          <mxGeometry relative="1" as="geometry" />
        </mxCell>
        <mxCell id="rJAPC31UgUTa_ClsGkhX-25" value="REGISTERS POST" style="whiteSpace=wrap;html=1;fontStyle=1;strokeWidth=2;" parent="1" vertex="1">
          <mxGeometry x="676" y="1027" width="120" height="60" as="geometry" />
        </mxCell>
        <mxCell id="rJAPC31UgUTa_ClsGkhX-31" style="edgeStyle=orthogonalEdgeStyle;rounded=0;orthogonalLoop=1;jettySize=auto;html=1;exitX=0.5;exitY=0;exitDx=0;exitDy=0;entryX=0.5;entryY=1;entryDx=0;entryDy=0;strokeColor=#00CC00;fontStyle=1;strokeWidth=2;" parent="1" source="rJAPC31UgUTa_ClsGkhX-26" target="rJAPC31UgUTa_ClsGkhX-9" edge="1">
          <mxGeometry relative="1" as="geometry" />
        </mxCell>
        <mxCell id="rJAPC31UgUTa_ClsGkhX-26" value="GENERATES TRACKING NUMBER" style="whiteSpace=wrap;html=1;fontStyle=1;strokeWidth=2;" parent="1" vertex="1">
          <mxGeometry x="830" y="1027" width="140" height="60" as="geometry" />
        </mxCell>
        <mxCell id="rJAPC31UgUTa_ClsGkhX-36" style="edgeStyle=orthogonalEdgeStyle;rounded=0;orthogonalLoop=1;jettySize=auto;html=1;exitX=1;exitY=0.5;exitDx=0;exitDy=0;entryX=0;entryY=0.5;entryDx=0;entryDy=0;strokeColor=#00CC00;fontStyle=1;strokeWidth=2;" parent="1" source="ARy9L5jDqZxJadZBe0WN-3" target="rJAPC31UgUTa_ClsGkhX-35" edge="1">
          <mxGeometry relative="1" as="geometry" />
        </mxCell>
        <mxCell id="cQHOtLbvJ-afgvZn70sQ-11" value="" style="edgeStyle=orthogonalEdgeStyle;rounded=0;orthogonalLoop=1;jettySize=auto;html=1;strokeColor=#FF0000;fontStyle=1;strokeWidth=2;entryX=0.295;entryY=-0.019;entryDx=0;entryDy=0;entryPerimeter=0;" parent="1" source="ARy9L5jDqZxJadZBe0WN-3" target="AzQMzEea1ovq_iMKdV9r-254" edge="1">
          <mxGeometry relative="1" as="geometry">
            <mxPoint x="1140" y="1040" as="targetPoint" />
            <Array as="points">
              <mxPoint x="1140" y="1040" />
            </Array>
          </mxGeometry>
        </mxCell>
        <mxCell id="rJAPC31UgUTa_ClsGkhX-32" value="ATTEMPTS DELIVERY AT APPLICANTS GIVEN ADDRESS" style="whiteSpace=wrap;html=1;fontStyle=1;strokeWidth=2;" parent="1" vertex="1">
          <mxGeometry x="1080" y="883" width="120" height="60" as="geometry" />
        </mxCell>
        <mxCell id="rJAPC31UgUTa_ClsGkhX-37" style="edgeStyle=orthogonalEdgeStyle;rounded=0;orthogonalLoop=1;jettySize=auto;html=1;exitX=0.5;exitY=0;exitDx=0;exitDy=0;entryX=0.5;entryY=1;entryDx=0;entryDy=0;strokeColor=#00CC00;fontStyle=1;strokeWidth=2;" parent="1" source="rJAPC31UgUTa_ClsGkhX-35" target="rJAPC31UgUTa_ClsGkhX-17" edge="1">
          <mxGeometry relative="1" as="geometry" />
        </mxCell>
        <mxCell id="rJAPC31UgUTa_ClsGkhX-35" value="REQUESTS FOR PHYSICAL SIGNATURE AND ORIGINAL POI" style="whiteSpace=wrap;html=1;fontStyle=1;strokeWidth=2;" parent="1" vertex="1">
          <mxGeometry x="1240" y="940" width="140" height="60" as="geometry" />
        </mxCell>
        <mxCell id="cQHOtLbvJ-afgvZn70sQ-12" style="edgeStyle=orthogonalEdgeStyle;rounded=0;orthogonalLoop=1;jettySize=auto;html=1;exitX=0;exitY=0.5;exitDx=0;exitDy=0;entryX=0;entryY=0.5;entryDx=0;entryDy=0;strokeColor=#00CC00;fontStyle=1;strokeWidth=2;" parent="1" source="rJAPC31UgUTa_ClsGkhX-41" target="rJAPC31UgUTa_ClsGkhX-32" edge="1">
          <mxGeometry relative="1" as="geometry" />
        </mxCell>
        <mxCell id="cQHOtLbvJ-afgvZn70sQ-14" style="edgeStyle=orthogonalEdgeStyle;rounded=0;orthogonalLoop=1;jettySize=auto;html=1;exitX=1;exitY=0.5;exitDx=0;exitDy=0;entryX=0;entryY=0.5;entryDx=0;entryDy=0;entryPerimeter=0;strokeColor=#FF0000;fontStyle=1;strokeWidth=2;" parent="1" source="rJAPC31UgUTa_ClsGkhX-41" target="cQHOtLbvJ-afgvZn70sQ-13" edge="1">
          <mxGeometry relative="1" as="geometry">
            <Array as="points">
              <mxPoint x="1205" y="1115" />
            </Array>
          </mxGeometry>
        </mxCell>
        <mxCell id="rJAPC31UgUTa_ClsGkhX-41" value="IF &lt;br&gt;ATTEMPT COUNT&lt;br&gt;&amp;nbsp;&amp;lt;=3" style="whiteSpace=wrap;html=1;fontStyle=1;strokeWidth=2;shape=rhombus;perimeter=rhombusPerimeter;" parent="1" vertex="1">
          <mxGeometry x="1075" y="1088" width="130" height="54" as="geometry" />
        </mxCell>
        <mxCell id="rJAPC31UgUTa_ClsGkhX-53" value="POSTAL SERVICE&lt;br&gt;PROVIDER" style="text;html=1;align=center;verticalAlign=middle;resizable=0;points=[];autosize=1;strokeColor=none;fillColor=none;fontSize=25;fontStyle=1;strokeWidth=2;horizontal=0;" parent="1" vertex="1">
          <mxGeometry x="195" y="890" width="80" height="230" as="geometry" />
        </mxCell>
        <mxCell id="rJAPC31UgUTa_ClsGkhX-54" value="ADMINISTRATOR" style="text;html=1;align=center;verticalAlign=middle;resizable=0;points=[];autosize=1;strokeColor=none;fillColor=none;fontSize=25;fontStyle=1;strokeWidth=2;horizontal=0;" parent="1" vertex="1">
          <mxGeometry x="110" y="100" width="220" height="40" as="geometry" />
        </mxCell>
        <mxCell id="rJAPC31UgUTa_ClsGkhX-56" value="APPLICANT or PARENT/&lt;br&gt;GUARDIAN/INTRODUCER" style="text;html=1;align=center;verticalAlign=middle;resizable=0;points=[];autosize=1;strokeColor=none;fillColor=none;fontSize=25;fontStyle=1;strokeWidth=2;horizontal=0;" parent="1" vertex="1">
          <mxGeometry x="200" y="-365" width="80" height="320" as="geometry" />
        </mxCell>
        <mxCell id="cQHOtLbvJ-afgvZn70sQ-3" style="edgeStyle=orthogonalEdgeStyle;rounded=0;orthogonalLoop=1;jettySize=auto;html=1;exitX=0.5;exitY=1;exitDx=0;exitDy=0;exitPerimeter=0;entryX=0.5;entryY=0;entryDx=0;entryDy=0;strokeColor=#00CC00;fontStyle=1;strokeWidth=2;" parent="1" source="AzQMzEea1ovq_iMKdV9r-229" target="cQHOtLbvJ-afgvZn70sQ-2" edge="1">
          <mxGeometry relative="1" as="geometry" />
        </mxCell>
        <mxCell id="cQHOtLbvJ-afgvZn70sQ-1" value="&lt;b&gt;START&lt;br&gt;(ONLINE)&lt;br&gt;&lt;/b&gt;" style="strokeWidth=2;html=1;shape=mxgraph.flowchart.terminator;whiteSpace=wrap;fillColor=#d5e8d4;strokeColor=#82b366;" parent="1" vertex="1">
          <mxGeometry x="310" y="60" width="100" height="40" as="geometry" />
        </mxCell>
        <mxCell id="AzQMzEea1ovq_iMKdV9r-231" style="edgeStyle=orthogonalEdgeStyle;rounded=0;orthogonalLoop=1;jettySize=auto;html=1;exitX=0.5;exitY=1;exitDx=0;exitDy=0;entryX=0.5;entryY=1;entryDx=0;entryDy=0;strokeColor=#00CC00;fontStyle=1;strokeWidth=2;" parent="1" source="cQHOtLbvJ-afgvZn70sQ-2" target="rJAPC31UgUTa_ClsGkhX-12" edge="1">
          <mxGeometry relative="1" as="geometry" />
        </mxCell>
        <mxCell id="AzQMzEea1ovq_iMKdV9r-232" style="edgeStyle=orthogonalEdgeStyle;rounded=0;orthogonalLoop=1;jettySize=auto;html=1;exitX=1;exitY=0.5;exitDx=0;exitDy=0;entryX=0;entryY=0.5;entryDx=0;entryDy=0;strokeColor=#FF0000;fontStyle=1;strokeWidth=2;" parent="1" source="cQHOtLbvJ-afgvZn70sQ-2" target="GhQXZmxLPSxAtkhX66xX-3" edge="1">
          <mxGeometry relative="1" as="geometry">
            <Array as="points">
              <mxPoint x="440" y="653" />
              <mxPoint x="440" y="-315" />
            </Array>
            <mxPoint x="375" y="-170" as="targetPoint" />
          </mxGeometry>
        </mxCell>
        <mxCell id="cQHOtLbvJ-afgvZn70sQ-2" value="IF &lt;br&gt;APPLICATION SUCCESS AND&lt;br&gt;UIN ACCOUNT &lt;br&gt;HAS FTP" style="rounded=0;whiteSpace=wrap;html=1;fontStyle=1;strokeWidth=2;shape=rhombus;perimeter=rhombusPerimeter;" parent="1" vertex="1">
          <mxGeometry x="295" y="600" width="130" height="105.25" as="geometry" />
        </mxCell>
        <mxCell id="ARy9L5jDqZxJadZBe0WN-6" value="" style="edgeStyle=orthogonalEdgeStyle;rounded=0;orthogonalLoop=1;jettySize=auto;html=1;strokeColor=#00CC00;fontStyle=1;strokeWidth=2;" parent="1" source="cQHOtLbvJ-afgvZn70sQ-9" target="AzQMzEea1ovq_iMKdV9r-241" edge="1">
          <mxGeometry relative="1" as="geometry" />
        </mxCell>
        <mxCell id="cQHOtLbvJ-afgvZn70sQ-9" value="&lt;font style=&quot;font-size: 12px;&quot;&gt;STORE&lt;br style=&quot;border-color: var(--border-color);&quot;&gt;&lt;span style=&quot;background-color: rgb(255, 255, 255);&quot;&gt;TRACKING&lt;/span&gt;&lt;br style=&quot;border-color: var(--border-color);&quot;&gt;&lt;span style=&quot;background-color: rgb(255, 255, 255);&quot;&gt;DETAILS IN UIN ACCOUNT&lt;/span&gt;&lt;/font&gt;" style="rounded=0;whiteSpace=wrap;html=1;fontStyle=1;strokeWidth=2;shape=label;boundedLbl=1;backgroundOutline=1;size=15;" parent="1" vertex="1">
          <mxGeometry x="1010" y="720" width="120" height="60" as="geometry" />
        </mxCell>
        <mxCell id="cQHOtLbvJ-afgvZn70sQ-20" style="edgeStyle=orthogonalEdgeStyle;rounded=0;orthogonalLoop=1;jettySize=auto;html=1;exitX=1;exitY=0.5;exitDx=0;exitDy=0;exitPerimeter=0;entryX=0.5;entryY=1;entryDx=0;entryDy=0;strokeColor=#00CC00;fontStyle=1;strokeWidth=2;" parent="1" source="cQHOtLbvJ-afgvZn70sQ-13" target="AzQMzEea1ovq_iMKdV9r-257" edge="1">
          <mxGeometry relative="1" as="geometry">
            <Array as="points">
              <mxPoint x="1550" y="1115" />
              <mxPoint x="1550" y="470" />
              <mxPoint x="1500" y="470" />
            </Array>
          </mxGeometry>
        </mxCell>
        <mxCell id="cQHOtLbvJ-afgvZn70sQ-13" value="&lt;b style=&quot;border-color: var(--border-color);&quot;&gt;TERMINATE PROCESS:&lt;br style=&quot;border-color: var(--border-color);&quot;&gt;&lt;/b&gt;RETURN TO ADMINISTRATOR" style="strokeWidth=2;html=1;shape=mxgraph.flowchart.terminator;whiteSpace=wrap;fillColor=#f8cecc;strokeColor=#b85450;" parent="1" vertex="1">
          <mxGeometry x="1280" y="1090" width="165" height="50" as="geometry" />
        </mxCell>
        <mxCell id="AzQMzEea1ovq_iMKdV9r-286" style="edgeStyle=orthogonalEdgeStyle;rounded=0;orthogonalLoop=1;jettySize=auto;html=1;exitX=1;exitY=0.5;exitDx=0;exitDy=0;entryX=0.5;entryY=0;entryDx=0;entryDy=0;strokeColor=#00CC00;fontStyle=1;strokeWidth=2;" parent="1" source="GhQXZmxLPSxAtkhX66xX-3" target="rJAPC31UgUTa_ClsGkhX-10" edge="1">
          <mxGeometry relative="1" as="geometry">
            <Array as="points">
              <mxPoint x="1560" y="-315" />
              <mxPoint x="1560" y="-80" />
              <mxPoint x="1500" y="-80" />
            </Array>
          </mxGeometry>
        </mxCell>
        <mxCell id="GhQXZmxLPSxAtkhX66xX-3" value="RECEIVES NOTIFICATION OF REJECTED APPLICATION LETTER" style="rounded=0;whiteSpace=wrap;html=1;fontStyle=1;strokeWidth=2;" parent="1" vertex="1">
          <mxGeometry x="1420" y="-350" width="120" height="70" as="geometry" />
        </mxCell>
        <mxCell id="Ul1_R_bWmwm3_dMuUFTI-4" style="edgeStyle=orthogonalEdgeStyle;rounded=0;orthogonalLoop=1;jettySize=auto;html=1;exitX=0;exitY=0.5;exitDx=0;exitDy=0;exitPerimeter=0;entryX=1;entryY=0.5;entryDx=0;entryDy=0;strokeColor=#9673a6;fontStyle=1;strokeWidth=2;fillColor=#e1d5e7;" parent="1" source="Ul1_R_bWmwm3_dMuUFTI-3" target="rJAPC31UgUTa_ClsGkhX-3" edge="1">
          <mxGeometry relative="1" as="geometry" />
        </mxCell>
        <mxCell id="Ul1_R_bWmwm3_dMuUFTI-3" value="&lt;b&gt;CONTINUE:&lt;br&gt;DELIVER NEW FTP&lt;/b&gt;" style="strokeWidth=2;html=1;shape=mxgraph.flowchart.terminator;whiteSpace=wrap;fillColor=#e1d5e7;strokeColor=#9673a6;" parent="1" vertex="1">
          <mxGeometry x="830" y="98.12" width="140" height="40" as="geometry" />
        </mxCell>
        <mxCell id="AzQMzEea1ovq_iMKdV9r-48" value="ADMIN" style="shape=umlActor;verticalLabelPosition=bottom;verticalAlign=top;html=1;outlineConnect=0;fontStyle=1" parent="1" vertex="1">
          <mxGeometry x="250" y="94.87" width="30" height="60" as="geometry" />
        </mxCell>
        <mxCell id="AzQMzEea1ovq_iMKdV9r-49" value="PUBLIC &lt;br&gt;NETWORK&lt;br style=&quot;border-color: var(--border-color);&quot;&gt;SYSTEMS &lt;br&gt;(CLIENT)" style="text;html=1;align=center;verticalAlign=middle;resizable=0;points=[];autosize=1;strokeColor=none;fillColor=none;fontStyle=1;fontSize=25;strokeWidth=2;horizontal=0;" parent="1" vertex="1">
          <mxGeometry x="195" y="330" width="140" height="140" as="geometry" />
        </mxCell>
        <mxCell id="AzQMzEea1ovq_iMKdV9r-50" value="PRIVATE NETWORK&lt;br&gt;SYSTEMS (SERVER)" style="text;html=1;align=center;verticalAlign=middle;resizable=0;points=[];autosize=1;strokeColor=none;fillColor=none;fontStyle=1;fontSize=25;strokeWidth=2;horizontal=0;" parent="1" vertex="1">
          <mxGeometry x="195" y="550" width="80" height="260" as="geometry" />
        </mxCell>
        <mxCell id="AzQMzEea1ovq_iMKdV9r-206" value="&lt;font style=&quot;font-size: 14px;&quot;&gt;PUBLIC NETWORK&lt;/font&gt;" style="swimlane;whiteSpace=wrap;html=1;" parent="1" vertex="1">
          <mxGeometry x="1820" y="315.5" width="200" height="167" as="geometry" />
        </mxCell>
        <mxCell id="AzQMzEea1ovq_iMKdV9r-207" value="DNS SERVERS" style="text;html=1;strokeColor=none;fillColor=none;align=center;verticalAlign=middle;whiteSpace=wrap;rounded=0;fontSize=14;" parent="AzQMzEea1ovq_iMKdV9r-206" vertex="1">
          <mxGeometry y="27" width="200" height="28" as="geometry" />
        </mxCell>
        <mxCell id="AzQMzEea1ovq_iMKdV9r-208" value="FTP SERVERS" style="text;html=1;strokeColor=none;fillColor=none;align=center;verticalAlign=middle;whiteSpace=wrap;rounded=0;fontSize=14;" parent="AzQMzEea1ovq_iMKdV9r-206" vertex="1">
          <mxGeometry y="55" width="200" height="28" as="geometry" />
        </mxCell>
        <mxCell id="AzQMzEea1ovq_iMKdV9r-209" value="MAIL SERVERS" style="text;html=1;strokeColor=none;fillColor=none;align=center;verticalAlign=middle;whiteSpace=wrap;rounded=0;fontSize=14;" parent="AzQMzEea1ovq_iMKdV9r-206" vertex="1">
          <mxGeometry y="83" width="200" height="28" as="geometry" />
        </mxCell>
        <mxCell id="AzQMzEea1ovq_iMKdV9r-210" value="PROXY SERVERS" style="text;html=1;strokeColor=none;fillColor=none;align=center;verticalAlign=middle;whiteSpace=wrap;rounded=0;fontSize=14;" parent="AzQMzEea1ovq_iMKdV9r-206" vertex="1">
          <mxGeometry y="111" width="200" height="28" as="geometry" />
        </mxCell>
        <mxCell id="AzQMzEea1ovq_iMKdV9r-211" value="WEB SERVERS" style="text;html=1;strokeColor=none;fillColor=none;align=center;verticalAlign=middle;whiteSpace=wrap;rounded=0;fontSize=14;" parent="AzQMzEea1ovq_iMKdV9r-206" vertex="1">
          <mxGeometry y="139" width="200" height="28" as="geometry" />
        </mxCell>
        <mxCell id="AzQMzEea1ovq_iMKdV9r-212" value="&lt;font style=&quot;font-size: 14px;&quot;&gt;LEGEND&lt;/font&gt;" style="swimlane;whiteSpace=wrap;html=1;" parent="1" vertex="1">
          <mxGeometry x="1820" y="-387.75" width="200" height="227.75" as="geometry" />
        </mxCell>
        <mxCell id="AzQMzEea1ovq_iMKdV9r-213" value="KM" style="ellipse;whiteSpace=wrap;html=1;fillColor=#dae8fc;strokeColor=#6c8ebf;gradientColor=#7ea6e0;fontStyle=1" parent="AzQMzEea1ovq_iMKdV9r-212" vertex="1">
          <mxGeometry x="10" y="30" width="30" height="26" as="geometry" />
        </mxCell>
        <mxCell id="AzQMzEea1ovq_iMKdV9r-214" value="IDA" style="ellipse;whiteSpace=wrap;html=1;fillColor=#dae8fc;strokeColor=#6c8ebf;gradientColor=#7ea6e0;fontStyle=1" parent="AzQMzEea1ovq_iMKdV9r-212" vertex="1">
          <mxGeometry x="10" y="131" width="30" height="26" as="geometry" />
        </mxCell>
        <mxCell id="AzQMzEea1ovq_iMKdV9r-215" value="HSM" style="ellipse;whiteSpace=wrap;html=1;fillColor=#dae8fc;strokeColor=#6c8ebf;gradientColor=#7ea6e0;fontStyle=1" parent="AzQMzEea1ovq_iMKdV9r-212" vertex="1">
          <mxGeometry x="10" y="91" width="30" height="26" as="geometry" />
        </mxCell>
        <mxCell id="AzQMzEea1ovq_iMKdV9r-216" value="KR" style="ellipse;whiteSpace=wrap;html=1;fillColor=#dae8fc;strokeColor=#6c8ebf;gradientColor=#7ea6e0;fontStyle=1" parent="AzQMzEea1ovq_iMKdV9r-212" vertex="1">
          <mxGeometry x="10" y="59" width="30" height="26" as="geometry" />
        </mxCell>
        <mxCell id="AzQMzEea1ovq_iMKdV9r-217" value="Key Manager" style="text;html=1;strokeColor=none;fillColor=none;align=center;verticalAlign=middle;whiteSpace=wrap;rounded=0;fontSize=14;" parent="AzQMzEea1ovq_iMKdV9r-212" vertex="1">
          <mxGeometry x="40" y="30" width="160" height="28" as="geometry" />
        </mxCell>
        <mxCell id="AzQMzEea1ovq_iMKdV9r-218" value="Key Revocation" style="text;html=1;strokeColor=none;fillColor=none;align=center;verticalAlign=middle;whiteSpace=wrap;rounded=0;fontSize=14;" parent="AzQMzEea1ovq_iMKdV9r-212" vertex="1">
          <mxGeometry x="40" y="58" width="160" height="28" as="geometry" />
        </mxCell>
        <mxCell id="AzQMzEea1ovq_iMKdV9r-219" value="Hardware Security Module" style="text;html=1;strokeColor=none;fillColor=none;align=center;verticalAlign=middle;whiteSpace=wrap;rounded=0;fontSize=14;" parent="AzQMzEea1ovq_iMKdV9r-212" vertex="1">
          <mxGeometry x="40" y="90" width="160" height="28" as="geometry" />
        </mxCell>
        <mxCell id="AzQMzEea1ovq_iMKdV9r-220" value="ID Authentication (DB)" style="text;html=1;strokeColor=none;fillColor=none;align=center;verticalAlign=middle;whiteSpace=wrap;rounded=0;fontSize=14;" parent="AzQMzEea1ovq_iMKdV9r-212" vertex="1">
          <mxGeometry x="40" y="130" width="160" height="28" as="geometry" />
        </mxCell>
        <mxCell id="AzQMzEea1ovq_iMKdV9r-221" value="AC" style="ellipse;whiteSpace=wrap;html=1;fillColor=#dae8fc;strokeColor=#6c8ebf;gradientColor=#7ea6e0;fontStyle=1" parent="AzQMzEea1ovq_iMKdV9r-212" vertex="1">
          <mxGeometry x="10" y="161" width="30" height="26" as="geometry" />
        </mxCell>
        <mxCell id="AzQMzEea1ovq_iMKdV9r-222" value="Access Control" style="text;html=1;strokeColor=none;fillColor=none;align=center;verticalAlign=middle;whiteSpace=wrap;rounded=0;fontSize=14;" parent="AzQMzEea1ovq_iMKdV9r-212" vertex="1">
          <mxGeometry x="40" y="160" width="160" height="28" as="geometry" />
        </mxCell>
        <mxCell id="AzQMzEea1ovq_iMKdV9r-223" value="Certificate Authority" style="text;html=1;strokeColor=none;fillColor=none;align=center;verticalAlign=middle;whiteSpace=wrap;rounded=0;fontSize=14;" parent="AzQMzEea1ovq_iMKdV9r-212" vertex="1">
          <mxGeometry x="40" y="190" width="160" height="28" as="geometry" />
        </mxCell>
        <mxCell id="AzQMzEea1ovq_iMKdV9r-224" value="CA" style="ellipse;whiteSpace=wrap;html=1;fillColor=#dae8fc;strokeColor=#6c8ebf;gradientColor=#7ea6e0;fontStyle=1" parent="AzQMzEea1ovq_iMKdV9r-212" vertex="1">
          <mxGeometry x="10" y="191" width="30" height="26" as="geometry" />
        </mxCell>
        <mxCell id="AzQMzEea1ovq_iMKdV9r-228" value="USER" style="shape=umlActor;verticalLabelPosition=bottom;verticalAlign=top;html=1;outlineConnect=0;fontStyle=1" parent="1" vertex="1">
          <mxGeometry x="280" y="-300" width="30" height="60" as="geometry" />
        </mxCell>
        <mxCell id="AzQMzEea1ovq_iMKdV9r-230" value="" style="edgeStyle=orthogonalEdgeStyle;rounded=0;orthogonalLoop=1;jettySize=auto;html=1;exitX=0.5;exitY=1;exitDx=0;exitDy=0;exitPerimeter=0;entryX=0.5;entryY=0;entryDx=0;entryDy=0;strokeColor=#00CC00;fontStyle=1;strokeWidth=2;" parent="1" source="cQHOtLbvJ-afgvZn70sQ-1" target="AzQMzEea1ovq_iMKdV9r-229" edge="1">
          <mxGeometry relative="1" as="geometry">
            <mxPoint x="360" y="100" as="sourcePoint" />
            <mxPoint x="360" y="635" as="targetPoint" />
          </mxGeometry>
        </mxCell>
        <mxCell id="AzQMzEea1ovq_iMKdV9r-229" value="NOTIFIES ALL PARTIES OF APPLICATION STATUS" style="rounded=0;whiteSpace=wrap;html=1;fontStyle=1;strokeWidth=2;" parent="1" vertex="1">
          <mxGeometry x="300" y="157" width="120" height="65" as="geometry" />
        </mxCell>
        <mxCell id="AzQMzEea1ovq_iMKdV9r-234" value="DELIVERY OF DIGITAL ID &amp;amp; FTP CREDENTIALS TO SUBSCRIBER" style="text;html=1;align=center;verticalAlign=middle;resizable=0;points=[];autosize=1;strokeColor=none;fillColor=none;fontSize=25;fontStyle=1;strokeWidth=2;" parent="1" vertex="1">
          <mxGeometry x="1000" y="-434" width="800" height="40" as="geometry" />
        </mxCell>
        <mxCell id="AzQMzEea1ovq_iMKdV9r-235" value="OB.4" style="text;html=1;align=center;verticalAlign=middle;resizable=0;points=[];autosize=1;strokeColor=none;fillColor=none;fontSize=25;fontStyle=1;strokeWidth=2;" parent="1" vertex="1">
          <mxGeometry x="900" y="-434" width="80" height="40" as="geometry" />
        </mxCell>
        <mxCell id="AzQMzEea1ovq_iMKdV9r-236" value="C" style="ellipse;whiteSpace=wrap;html=1;aspect=fixed;fontSize=28;fontColor=default;strokeWidth=2;fontStyle=1" parent="1" vertex="1">
          <mxGeometry x="200" y="-434" width="40" height="40" as="geometry" />
        </mxCell>
        <mxCell id="AzQMzEea1ovq_iMKdV9r-249" style="edgeStyle=orthogonalEdgeStyle;rounded=0;orthogonalLoop=1;jettySize=auto;html=1;exitX=1;exitY=0.5;exitDx=0;exitDy=0;strokeColor=#00CC00;fontStyle=1;strokeWidth=2;" parent="1" source="AzQMzEea1ovq_iMKdV9r-238" target="rJAPC31UgUTa_ClsGkhX-18" edge="1">
          <mxGeometry relative="1" as="geometry" />
        </mxCell>
        <mxCell id="AzQMzEea1ovq_iMKdV9r-250" style="edgeStyle=orthogonalEdgeStyle;rounded=0;orthogonalLoop=1;jettySize=auto;html=1;exitX=0.5;exitY=0;exitDx=0;exitDy=0;entryX=0;entryY=0.5;entryDx=0;entryDy=0;strokeColor=#FF2617;fontStyle=1;strokeWidth=2;" parent="1" source="AzQMzEea1ovq_iMKdV9r-238" target="GhQXZmxLPSxAtkhX66xX-3" edge="1">
          <mxGeometry relative="1" as="geometry" />
        </mxCell>
        <mxCell id="AzQMzEea1ovq_iMKdV9r-238" value="IF &lt;br&gt;APPLICATION SUCCESS" style="rounded=0;whiteSpace=wrap;html=1;fontStyle=1;strokeWidth=2;shape=rhombus;perimeter=rhombusPerimeter;" parent="1" vertex="1">
          <mxGeometry x="1260" y="-262.5" width="100" height="75" as="geometry" />
        </mxCell>
        <mxCell id="AzQMzEea1ovq_iMKdV9r-243" style="edgeStyle=orthogonalEdgeStyle;rounded=0;orthogonalLoop=1;jettySize=auto;html=1;exitX=0.5;exitY=0;exitDx=0;exitDy=0;entryX=0.5;entryY=1;entryDx=0;entryDy=0;strokeColor=#00CC00;fontStyle=1;strokeWidth=2;" parent="1" source="AzQMzEea1ovq_iMKdV9r-241" target="rJAPC31UgUTa_ClsGkhX-15" edge="1">
          <mxGeometry relative="1" as="geometry" />
        </mxCell>
        <mxCell id="AzQMzEea1ovq_iMKdV9r-241" value="NOTIFY USER OF TRACKING DETAILS" style="whiteSpace=wrap;html=1;fontStyle=1;strokeWidth=2;" parent="1" vertex="1">
          <mxGeometry x="1010" y="610" width="100" height="52" as="geometry" />
        </mxCell>
        <mxCell id="AzQMzEea1ovq_iMKdV9r-244" value="NOTIFICATION GENERATOR" style="whiteSpace=wrap;html=1;fontStyle=1;strokeWidth=2;" parent="1" vertex="1">
          <mxGeometry x="1010" y="562" width="100" height="36" as="geometry" />
        </mxCell>
        <mxCell id="AzQMzEea1ovq_iMKdV9r-245" value="IDA" style="ellipse;whiteSpace=wrap;html=1;fillColor=#dae8fc;strokeColor=#6c8ebf;gradientColor=#7ea6e0;fontStyle=1" parent="1" vertex="1">
          <mxGeometry x="1010" y="694" width="30" height="26" as="geometry" />
        </mxCell>
        <mxCell id="AzQMzEea1ovq_iMKdV9r-246" value="KM" style="ellipse;whiteSpace=wrap;html=1;fillColor=#dae8fc;strokeColor=#6c8ebf;gradientColor=#7ea6e0;fontStyle=1" parent="1" vertex="1">
          <mxGeometry x="980" y="716" width="30" height="26" as="geometry" />
        </mxCell>
        <mxCell id="AzQMzEea1ovq_iMKdV9r-247" value="HSM" style="ellipse;whiteSpace=wrap;html=1;fillColor=#dae8fc;strokeColor=#6c8ebf;gradientColor=#7ea6e0;fontStyle=1" parent="1" vertex="1">
          <mxGeometry x="980" y="757" width="30" height="26" as="geometry" />
        </mxCell>
        <mxCell id="AzQMzEea1ovq_iMKdV9r-253" style="edgeStyle=orthogonalEdgeStyle;rounded=0;orthogonalLoop=1;jettySize=auto;html=1;exitX=0.5;exitY=1;exitDx=0;exitDy=0;strokeColor=#FF0000;fontStyle=1;strokeWidth=2;entryX=0.5;entryY=0;entryDx=0;entryDy=0;" parent="1" source="AzQMzEea1ovq_iMKdV9r-251" target="AzQMzEea1ovq_iMKdV9r-254" edge="1">
          <mxGeometry relative="1" as="geometry">
            <Array as="points">
              <mxPoint x="1460" y="1010" />
              <mxPoint x="1185" y="1010" />
            </Array>
          </mxGeometry>
        </mxCell>
        <mxCell id="AzQMzEea1ovq_iMKdV9r-256" value="RESET COUNTER" style="edgeStyle=orthogonalEdgeStyle;rounded=0;orthogonalLoop=1;jettySize=auto;html=1;exitX=0.5;exitY=0;exitDx=0;exitDy=0;entryX=0.5;entryY=1;entryDx=0;entryDy=0;strokeColor=#00CC00;fontStyle=1;strokeWidth=2;" parent="1" source="AzQMzEea1ovq_iMKdV9r-251" target="AzQMzEea1ovq_iMKdV9r-238" edge="1">
          <mxGeometry x="-0.9187" relative="1" as="geometry">
            <Array as="points">
              <mxPoint x="1460" y="650" />
              <mxPoint x="1400" y="650" />
              <mxPoint x="1400" y="-150" />
              <mxPoint x="1310" y="-150" />
            </Array>
            <mxPoint y="1" as="offset" />
          </mxGeometry>
        </mxCell>
        <mxCell id="AzQMzEea1ovq_iMKdV9r-251" value="IF &lt;br&gt;POI AND NAME MATCH" style="rounded=0;whiteSpace=wrap;html=1;fontStyle=1;strokeWidth=2;shape=rhombus;perimeter=rhombusPerimeter;" parent="1" vertex="1">
          <mxGeometry x="1410" y="929.5" width="100" height="75" as="geometry" />
        </mxCell>
        <mxCell id="ARy9L5jDqZxJadZBe0WN-1" style="edgeStyle=orthogonalEdgeStyle;rounded=0;orthogonalLoop=1;jettySize=auto;html=1;exitX=0.25;exitY=1;exitDx=0;exitDy=0;entryX=0.5;entryY=0;entryDx=0;entryDy=0;strokeColor=#FF0000;fontStyle=1;strokeWidth=2;" parent="1" source="AzQMzEea1ovq_iMKdV9r-254" target="rJAPC31UgUTa_ClsGkhX-41" edge="1">
          <mxGeometry relative="1" as="geometry" />
        </mxCell>
        <mxCell id="AzQMzEea1ovq_iMKdV9r-254" value="EXCEPTION AND ERROR HANDLING" style="whiteSpace=wrap;html=1;fontStyle=1;strokeWidth=2;" parent="1" vertex="1">
          <mxGeometry x="1075" y="1046" width="220" height="22" as="geometry" />
        </mxCell>
        <mxCell id="AzQMzEea1ovq_iMKdV9r-258" style="edgeStyle=orthogonalEdgeStyle;rounded=0;orthogonalLoop=1;jettySize=auto;html=1;exitX=1;exitY=0.5;exitDx=0;exitDy=0;strokeColor=#00CC00;fontStyle=1;strokeWidth=2;jumpStyle=arc;jumpSize=11;" parent="1" source="AzQMzEea1ovq_iMKdV9r-257" target="rJAPC31UgUTa_ClsGkhX-19" edge="1">
          <mxGeometry relative="1" as="geometry" />
        </mxCell>
        <mxCell id="AzQMzEea1ovq_iMKdV9r-257" value="RECEIVES RETURNED LETTER" style="whiteSpace=wrap;html=1;fontStyle=1;strokeWidth=2;" parent="1" vertex="1">
          <mxGeometry x="1440" y="133" width="120" height="60" as="geometry" />
        </mxCell>
        <mxCell id="AzQMzEea1ovq_iMKdV9r-260" value="NOTIFICATION GENERATOR" style="whiteSpace=wrap;html=1;fontStyle=1;strokeWidth=2;" parent="1" vertex="1">
          <mxGeometry x="1510" y="905" width="120" height="35" as="geometry" />
        </mxCell>
        <mxCell id="AzQMzEea1ovq_iMKdV9r-261" value="NOTIFICATION GENERATOR" style="whiteSpace=wrap;html=1;fontStyle=1;strokeWidth=2;" parent="1" vertex="1">
          <mxGeometry x="1252.5" y="886" width="120" height="35" as="geometry" />
        </mxCell>
        <mxCell id="AzQMzEea1ovq_iMKdV9r-262" value="NOTIFICATION GENERATOR" style="whiteSpace=wrap;html=1;fontStyle=1;strokeWidth=2;" parent="1" vertex="1">
          <mxGeometry x="840" y="902" width="120" height="35" as="geometry" />
        </mxCell>
        <mxCell id="AzQMzEea1ovq_iMKdV9r-117" value="" style="group" parent="1" vertex="1" connectable="0">
          <mxGeometry x="200" y="260" width="1600" height="60" as="geometry" />
        </mxCell>
        <mxCell id="AzQMzEea1ovq_iMKdV9r-118" value="" style="group" parent="AzQMzEea1ovq_iMKdV9r-117" vertex="1" connectable="0">
          <mxGeometry y="2" width="1600.0000000000002" height="40" as="geometry" />
        </mxCell>
        <mxCell id="AzQMzEea1ovq_iMKdV9r-119" value="&lt;b&gt;SINGLE/ DUAL FIREWALL&lt;/b&gt;" style="shape=label;whiteSpace=wrap;html=1;boundedLbl=1;backgroundOutline=1;darkOpacity=0.05;darkOpacity2=0.1;fillColor=#e51400;fontColor=#ffffff;strokeColor=#B20000;rounded=0;" parent="AzQMzEea1ovq_iMKdV9r-118" vertex="1">
          <mxGeometry width="1600.0000000000002" height="20" as="geometry" />
        </mxCell>
        <mxCell id="AzQMzEea1ovq_iMKdV9r-120" value="&lt;b&gt;IDS, IPS, HONEYPOT&lt;/b&gt;" style="shape=label;whiteSpace=wrap;html=1;boundedLbl=1;backgroundOutline=1;darkOpacity=0.05;darkOpacity2=0.1;fillColor=#f0a30a;strokeColor=#BD7000;rounded=0;fontColor=#000000;" parent="AzQMzEea1ovq_iMKdV9r-118" vertex="1">
          <mxGeometry y="20" width="1600.0000000000002" height="20" as="geometry" />
        </mxCell>
        <mxCell id="AzQMzEea1ovq_iMKdV9r-121" value="API/ HTTPS (SSL/TLS)" style="shape=label;whiteSpace=wrap;html=1;boundedLbl=1;backgroundOutline=1;darkOpacity=0.05;darkOpacity2=0.1;fillColor=#f8cecc;strokeColor=#b85450;rounded=0;fontStyle=1" parent="AzQMzEea1ovq_iMKdV9r-117" vertex="1">
          <mxGeometry y="-18" width="1600.0000000000002" height="20" as="geometry" />
        </mxCell>
        <mxCell id="AzQMzEea1ovq_iMKdV9r-269" value="" style="group" parent="1" vertex="1" connectable="0">
          <mxGeometry x="200" y="511" width="1600" height="60" as="geometry" />
        </mxCell>
        <mxCell id="AzQMzEea1ovq_iMKdV9r-270" value="" style="group" parent="AzQMzEea1ovq_iMKdV9r-269" vertex="1" connectable="0">
          <mxGeometry y="2" width="1600.0000000000002" height="40" as="geometry" />
        </mxCell>
        <mxCell id="AzQMzEea1ovq_iMKdV9r-271" value="&lt;b&gt;SINGLE/ DUAL FIREWALL&lt;/b&gt;" style="shape=label;whiteSpace=wrap;html=1;boundedLbl=1;backgroundOutline=1;darkOpacity=0.05;darkOpacity2=0.1;fillColor=#e51400;fontColor=#ffffff;strokeColor=#B20000;rounded=0;" parent="AzQMzEea1ovq_iMKdV9r-270" vertex="1">
          <mxGeometry width="1600.0000000000002" height="20" as="geometry" />
        </mxCell>
        <mxCell id="AzQMzEea1ovq_iMKdV9r-272" value="&lt;b&gt;IDS, IPS, HONEYPOT&lt;/b&gt;" style="shape=label;whiteSpace=wrap;html=1;boundedLbl=1;backgroundOutline=1;darkOpacity=0.05;darkOpacity2=0.1;fillColor=#f0a30a;strokeColor=#BD7000;rounded=0;fontColor=#000000;" parent="AzQMzEea1ovq_iMKdV9r-270" vertex="1">
          <mxGeometry y="20" width="1600.0000000000002" height="20" as="geometry" />
        </mxCell>
        <mxCell id="AzQMzEea1ovq_iMKdV9r-273" value="API/ HTTPS (SSL/TLS)" style="shape=label;whiteSpace=wrap;html=1;boundedLbl=1;backgroundOutline=1;darkOpacity=0.05;darkOpacity2=0.1;fillColor=#f8cecc;strokeColor=#b85450;rounded=0;fontStyle=1" parent="AzQMzEea1ovq_iMKdV9r-269" vertex="1">
          <mxGeometry y="-18" width="1600.0000000000002" height="20" as="geometry" />
        </mxCell>
        <mxCell id="AzQMzEea1ovq_iMKdV9r-274" value="" style="group" parent="1" vertex="1" connectable="0">
          <mxGeometry x="200" y="823" width="1600" height="60" as="geometry" />
        </mxCell>
        <mxCell id="AzQMzEea1ovq_iMKdV9r-275" value="" style="group" parent="AzQMzEea1ovq_iMKdV9r-274" vertex="1" connectable="0">
          <mxGeometry y="2" width="1600.0000000000002" height="40" as="geometry" />
        </mxCell>
        <mxCell id="AzQMzEea1ovq_iMKdV9r-276" value="&lt;b&gt;SINGLE/ DUAL FIREWALL&lt;/b&gt;" style="shape=label;whiteSpace=wrap;html=1;boundedLbl=1;backgroundOutline=1;darkOpacity=0.05;darkOpacity2=0.1;fillColor=#e51400;fontColor=#ffffff;strokeColor=#B20000;rounded=0;" parent="AzQMzEea1ovq_iMKdV9r-275" vertex="1">
          <mxGeometry width="1600.0000000000002" height="20" as="geometry" />
        </mxCell>
        <mxCell id="AzQMzEea1ovq_iMKdV9r-277" value="&lt;b&gt;IDS, IPS, HONEYPOT&lt;/b&gt;" style="shape=label;whiteSpace=wrap;html=1;boundedLbl=1;backgroundOutline=1;darkOpacity=0.05;darkOpacity2=0.1;fillColor=#f0a30a;strokeColor=#BD7000;rounded=0;fontColor=#000000;" parent="AzQMzEea1ovq_iMKdV9r-275" vertex="1">
          <mxGeometry y="20" width="1600.0000000000002" height="20" as="geometry" />
        </mxCell>
        <mxCell id="AzQMzEea1ovq_iMKdV9r-278" value="API/ HTTPS (SSL/TLS)" style="shape=label;whiteSpace=wrap;html=1;boundedLbl=1;backgroundOutline=1;darkOpacity=0.05;darkOpacity2=0.1;fillColor=#f8cecc;strokeColor=#b85450;rounded=0;fontStyle=1" parent="AzQMzEea1ovq_iMKdV9r-274" vertex="1">
          <mxGeometry y="-18" width="1600.0000000000002" height="20" as="geometry" />
        </mxCell>
        <mxCell id="AzQMzEea1ovq_iMKdV9r-279" value="" style="edgeStyle=orthogonalEdgeStyle;rounded=0;orthogonalLoop=1;jettySize=auto;html=1;strokeColor=#00CC00;fontStyle=1;strokeWidth=2;" parent="1" source="AzQMzEea1ovq_iMKdV9r-280" target="AzQMzEea1ovq_iMKdV9r-281" edge="1">
          <mxGeometry relative="1" as="geometry" />
        </mxCell>
        <mxCell id="AzQMzEea1ovq_iMKdV9r-280" value="LOGS THE PROCESS AND STATUS" style="rounded=0;whiteSpace=wrap;html=1;fontStyle=1;strokeWidth=2;shape=label;boundedLbl=1;backgroundOutline=1;size=15;" parent="1" vertex="1">
          <mxGeometry x="1620" y="630" width="120" height="61" as="geometry" />
        </mxCell>
        <mxCell id="AzQMzEea1ovq_iMKdV9r-281" value="&lt;b&gt;END&lt;/b&gt;" style="strokeWidth=2;html=1;shape=mxgraph.flowchart.terminator;whiteSpace=wrap;fillColor=#f8cecc;strokeColor=#b85450;" parent="1" vertex="1">
          <mxGeometry x="1630" y="720" width="100" height="40" as="geometry" />
        </mxCell>
        <mxCell id="AzQMzEea1ovq_iMKdV9r-282" value="IDA" style="ellipse;whiteSpace=wrap;html=1;fillColor=#dae8fc;strokeColor=#6c8ebf;gradientColor=#7ea6e0;fontStyle=1" parent="1" vertex="1">
          <mxGeometry x="1620" y="604" width="30" height="26" as="geometry" />
        </mxCell>
        <mxCell id="t22JFKakEhL9KWeLfn-f-6" value="MASKING &amp;amp; ENCRYPT TRACKING NUMBER" style="rounded=0;whiteSpace=wrap;html=1;fontStyle=1;direction=east;strokeWidth=2;" parent="1" vertex="1">
          <mxGeometry x="836" y="350" width="144" height="60" as="geometry" />
        </mxCell>
        <mxCell id="t22JFKakEhL9KWeLfn-f-7" value="KM" style="ellipse;whiteSpace=wrap;html=1;fillColor=#dae8fc;strokeColor=#6c8ebf;gradientColor=#7ea6e0;fontStyle=1" parent="1" vertex="1">
          <mxGeometry x="806" y="340" width="30" height="26" as="geometry" />
        </mxCell>
        <mxCell id="t22JFKakEhL9KWeLfn-f-8" value="HSM" style="ellipse;whiteSpace=wrap;html=1;fillColor=#dae8fc;strokeColor=#6c8ebf;gradientColor=#7ea6e0;fontStyle=1" parent="1" vertex="1">
          <mxGeometry x="806" y="366" width="30" height="26" as="geometry" />
        </mxCell>
        <mxCell id="t22JFKakEhL9KWeLfn-f-9" value="CA" style="ellipse;whiteSpace=wrap;html=1;fillColor=#dae8fc;strokeColor=#6c8ebf;gradientColor=#7ea6e0;fontStyle=1" parent="1" vertex="1">
          <mxGeometry x="806" y="392" width="30" height="26" as="geometry" />
        </mxCell>
        <mxCell id="ARy9L5jDqZxJadZBe0WN-4" value="" style="edgeStyle=orthogonalEdgeStyle;rounded=0;orthogonalLoop=1;jettySize=auto;html=1;strokeColor=#00CC00;fontStyle=1;strokeWidth=2;entryX=0.5;entryY=0;entryDx=0;entryDy=0;" parent="1" source="rJAPC31UgUTa_ClsGkhX-32" target="ARy9L5jDqZxJadZBe0WN-3" edge="1">
          <mxGeometry relative="1" as="geometry">
            <mxPoint x="1140" y="943" as="sourcePoint" />
            <mxPoint x="1140" y="1046" as="targetPoint" />
            <Array as="points" />
          </mxGeometry>
        </mxCell>
        <mxCell id="ARy9L5jDqZxJadZBe0WN-3" value="&lt;p style=&quot;line-height: 100%;&quot;&gt;IF&lt;br&gt;SUBSCRIBER PRESENT&lt;/p&gt;" style="whiteSpace=wrap;html=1;fontStyle=1;strokeWidth=2;shape=rhombus;perimeter=rhombusPerimeter;" parent="1" vertex="1">
          <mxGeometry x="1082.5" y="967" width="115" height="60" as="geometry" />
        </mxCell>
        <mxCell id="NmnEyTSPz5QGSIFoqC2D-1" value="&lt;div style=&quot;font-size: 18px;&quot;&gt;&lt;font style=&quot;font-size: 18px;&quot;&gt;&lt;b style=&quot;font-size: 18px;&quot;&gt;Purpose:&lt;/b&gt;&lt;/font&gt;&lt;/div&gt;&lt;div style=&quot;font-size: 18px;&quot;&gt;This SOP d&lt;span style=&quot;background-color: rgb(255, 255, 255); color: rgb(13, 13, 13); font-size: 18px; white-space-collapse: preserve;&quot;&gt;etails the delivery process of digital ID and credentials to the user.&lt;/span&gt;&lt;br style=&quot;font-size: 18px;&quot;&gt;&lt;/div&gt;" style="whiteSpace=wrap;html=1;align=left;rounded=0;strokeWidth=2;verticalAlign=middle;fontFamily=Helvetica;fontSize=18;fontStyle=0;" vertex="1" parent="1">
          <mxGeometry x="180" y="-500" width="1640" height="60" as="geometry" />
        </mxCell>
      </root>
    </mxGraphModel>
  </diagram>
</mxfile>
